<svg width="23" height="28" viewBox="0 0 23 28" fill="none" xmlns="http://www.w3.org/2000/svg">
<path fill-rule="evenodd" clip-rule="evenodd" d="M9.04669 0H21.0373C21.5793 0 22.0419 0.192209 22.4251 0.577148C22.8084 0.962089 23 1.42729 23 1.97168V26.0283C23 26.5727 22.8084 27.0379 22.4251 27.4229C22.0419 27.8078 21.5793 28 21.0373 28H1.96265C1.42067 28 0.958061 27.8078 0.574829 27.4229C0.191594 27.0379 -3.89947e-08 26.5727 0 26.0283V8.77441L8.76794 0H9.04669ZM1.3493 26.0283V9.7334H7.75867C8.30064 9.7334 8.76325 9.54119 9.14648 9.15625C9.52972 8.77131 9.72131 8.30708 9.72131 7.7627V1.35547H21.0373C21.2067 1.35547 21.3513 1.41584 21.471 1.53613C21.5908 1.65643 21.6507 1.80156 21.6507 1.97168V26.0283C21.6507 26.1985 21.5908 26.3436 21.471 26.4639C21.3513 26.5842 21.2067 26.6445 21.0373 26.6445H1.96265C1.79328 26.6445 1.64876 26.5842 1.52899 26.4639C1.40923 26.3436 1.3493 26.1985 1.3493 26.0283ZM2.30768 8.37891L8.37201 2.30957V7.7627C8.37201 7.93282 8.31214 8.07795 8.19238 8.19824C8.07262 8.31854 7.92803 8.37891 7.75867 8.37891H2.30768ZM18.1853 12.7832H4.8147C4.44209 12.7832 4.14001 13.0867 4.14001 13.4609C4.14001 13.8352 4.44209 14.1387 4.8147 14.1387H18.1853C18.5579 14.1387 18.86 13.8352 18.86 13.4609C18.86 13.0867 18.5579 12.7832 18.1853 12.7832ZM18.1853 16.793H4.8147C4.44209 16.793 4.14001 17.0964 4.14001 17.4707C4.14001 17.8449 4.44209 18.1484 4.8147 18.1484H18.1853C18.5579 18.1484 18.86 17.8449 18.86 17.4707C18.86 17.0964 18.5579 16.793 18.1853 16.793ZM18.1853 20.9355H4.8147C4.44209 20.9355 4.14001 21.2391 4.14001 21.6133C4.14001 21.9876 4.44209 22.291 4.8147 22.291H18.1853C18.5579 22.291 18.86 21.9876 18.86 21.6133C18.86 21.2391 18.5579 20.9355 18.1853 20.9355Z" fill="#212121"/>
</svg>
